<svg width="215.04500732421874px" height="120.79997253417969px" xmlns="http://www.w3.org/2000/svg" viewBox="142.4774963378906 14.600013732910156 215.04500732421874 120.79997253417969" style="background: rgba(0, 0, 0, 0);" preserveAspectRatio="xMidYMid"><defs><filter id="editing-jagged" x="-100%" y="-100%" width="300%" height="300%"><feTurbulence result="turb" baseFrequency="0.1" numOctaves="1" seed="1"></feTurbulence><feDisplacementMap in="SourceGraphic" in2="turb" scale="10"></feDisplacementMap></filter></defs><g filter="url(#editing-jagged)"><g transform="translate(178.99001955986023, 92.60000038146973)"><path d="M24.32-31.55L24.32-31.55L24.32-31.55Q26.43-33.92 30.08-33.92L30.08-33.92L30.08-33.92Q32.32-33.92 34.05-32.70L34.05-32.70L34.05-32.70Q35.78-31.49 35.78-29.22L35.78-29.22L35.78-29.22Q35.78-26.94 35.07-24.51L35.07-24.51L35.07-24.51Q34.37-22.08 33.28-19.58L33.28-19.58L33.28-19.58Q31.10-14.72 28.10-10.69L28.10-10.69L28.10-10.69Q23.87-4.86 19.81-1.79L19.81-1.79L19.81-1.79Q15.74 1.28 11.33 1.28L11.33 1.28L11.33 1.28Q7.74 1.28 5.57 0.45L5.57 0.45L5.57 0.45Q5.18-12.99 4.70-17.79L4.70-17.79L4.70-17.79Q4.22-22.59 3.84-25.22L3.84-25.22L3.84-25.22Q3.20-30.34 1.28-31.55L1.28-31.55L1.28-31.55Q2.75-32.83 4.19-33.38L4.19-33.38L4.19-33.38Q5.63-33.92 8.61-33.92L8.61-33.92L8.61-33.92Q11.58-33.92 13.70-31.58L13.70-31.58L13.70-31.58Q15.81-29.25 16.22-25.12L16.22-25.12L16.22-25.12Q16.64-20.99 16.64-16L16.64-16L16.64-16Q16.64-11.01 16.26-4.99L16.26-4.99L16.26-4.99Q18.24-6.40 20.35-10.69L20.35-10.69L20.35-10.69Q23.23-16.64 24.26-23.81L24.26-23.81L24.26-23.81Q24.58-25.98 24.58-28.29L24.58-28.29L24.58-28.29Q24.58-30.59 24.32-31.55ZM63.42-10.82L63.42-10.82L63.42-10.82Q65.02-9.73 65.02-7.33L65.02-7.33L65.02-7.33Q65.02-4.93 63.81-3.39L63.81-3.39L63.81-3.39Q62.59-1.86 60.61-0.83L60.61-0.83L60.61-0.83Q56.51 1.28 52.10 1.28L52.10 1.28L52.10 1.28Q47.68 1.28 45.09 0.32L45.09 0.32L45.09 0.32Q42.50-0.64 40.77-2.43L40.77-2.43L40.77-2.43Q37.38-5.82 37.38-12.03L37.38-12.03L37.38-12.03Q37.38-21.70 42.62-27.58L42.62-27.58L42.62-27.58Q48.26-33.92 58.05-33.92L58.05-33.92L58.05-33.92Q64.13-33.92 67.14-31.36L67.14-31.36L67.14-31.36Q69.38-29.44 69.38-26.30L69.38-26.30L69.38-26.30Q69.38-15.04 49.92-15.04L49.92-15.04L49.92-15.04Q49.66-13.38 49.66-11.97L49.66-11.97L49.66-11.97Q49.66-9.02 50.98-7.90L50.98-7.90L50.98-7.90Q52.29-6.78 54.72-6.78L54.72-6.78L54.72-6.78Q57.15-6.78 59.74-7.90L59.74-7.90L59.74-7.90Q62.34-9.02 63.42-10.82ZM50.37-17.79L50.37-17.79L50.37-17.79Q54.91-17.79 57.54-20.61L57.54-20.61L57.54-20.61Q60.16-23.30 60.16-27.58L60.16-27.58L60.16-27.58Q60.16-29.06 59.62-29.86L59.62-29.86L59.62-29.86Q59.07-30.66 57.98-30.66L57.98-30.66L57.98-30.66Q56.90-30.66 55.97-30.24L55.97-30.24L55.97-30.24Q55.04-29.82 54.08-28.42L54.08-28.42L54.08-28.42Q51.71-25.22 50.37-17.79ZM80.06 0.19L80.06 0.19L80.06 0.19Q78.02 1.28 75.20 1.28L75.20 1.28L75.20 1.28Q72.38 1.28 70.85-0.16L70.85-0.16L70.85-0.16Q69.31-1.60 69.31-4.38L69.31-4.38L69.31-4.38Q69.31-7.17 71.26-9.89L71.26-9.89L71.26-9.89Q73.22-12.61 76.13-14.14L76.13-14.14L76.13-14.14Q79.04-15.68 81.09-16.58L81.09-16.58L77.06-25.86L77.06-25.86Q75.97-28.22 73.92-28.22L73.92-28.22L73.41-28.16L73.22-28.16L73.22-28.16Q73.60-30.40 76.22-32.13L76.22-32.13L76.22-32.13Q78.85-33.92 81.86-33.92L81.86-33.92L81.86-33.92Q86.72-33.92 88.96-29.06L88.96-29.06L89.47-28.03L92.22-21.25L92.22-21.25Q93.95-22.02 94.69-23.46L94.69-23.46L94.69-23.46Q95.42-24.90 95.42-27.74L95.42-27.74L95.42-27.74Q95.42-30.59 93.89-32.38L93.89-32.38L93.89-32.38Q96.32-33.92 99.52-33.92L99.52-33.92L99.52-33.92Q105.28-33.92 105.28-28.35L105.28-28.35L105.28-28.35Q105.28-22.27 97.66-18.75L97.66-18.75L93.82-16.96L97.28-8.06L97.28-8.06Q98.30-5.38 100.16-4.22L100.16-4.22L100.16-4.22Q100.93-3.71 101.82-3.65L101.82-3.65L101.82-3.65Q99.90-0.51 95.74 0.90L95.74 0.90L95.74 0.90Q94.46 1.28 92.74 1.28L92.74 1.28L92.74 1.28Q91.01 1.28 89.02 0.10L89.02 0.10L89.02 0.10Q87.04-1.09 86.34-2.94L86.34-2.94L82.82-12.10L82.82-12.10Q79.23-10.50 79.23-4.67L79.23-4.67L79.23-4.67Q79.23-1.98 80.06 0.19ZM120.64 1.28L120.64 1.28L120.64 1.28Q106.56 1.28 106.56-11.97L106.56-11.97L106.56-11.97Q106.56-21.38 111.74-27.46L111.74-27.46L111.74-27.46Q117.25-33.92 126.78-33.92L126.78-33.92L126.78-33.92Q133.70-33.92 137.22-30.72L137.22-30.72L137.22-30.72Q140.74-27.52 140.74-20.80L140.74-20.80L140.74-20.80Q140.74-10.56 135.23-4.61L135.23-4.61L135.23-4.61Q129.86 1.28 120.64 1.28ZM122.30-26.56L122.30-26.56L122.30-26.56Q121.54-24.83 120.93-22.24L120.93-22.24L120.93-22.24Q120.32-19.65 119.55-15.55L119.55-15.55L119.55-15.55Q118.78-11.46 118.78-6.40L118.78-6.40L118.78-6.40Q118.78-4.74 119.33-3.65L119.33-3.65L119.33-3.65Q119.87-2.56 121.34-2.56L121.34-2.56L121.34-2.56Q122.82-2.56 123.74-3.26L123.74-3.26L123.74-3.26Q124.67-3.97 125.38-5.63L125.38-5.63L125.38-5.63Q126.66-8.58 127.68-14.05L127.68-14.05L127.68-14.05Q128.70-19.52 128.80-21.89L128.80-21.89L128.80-21.89Q128.90-24.26 128.90-26.02L128.90-26.02L128.90-26.02Q128.90-27.78 128.38-28.93L128.38-28.93L128.38-28.93Q127.87-30.08 126.43-30.08L126.43-30.08L126.43-30.08Q124.99-30.08 124.03-29.18L124.03-29.18L124.03-29.18Q123.07-28.29 122.30-26.56Z" fill="#444"></path></g></g><style>text {
  font-size: 64px;
  font-family: Arial Black;
  dominant-baseline: central;
  text-anchor: middle;
}</style></svg>